<mxfile host="app.diagrams.net" agent="Mozilla/5.0 (Windows NT 10.0; Win64; x64) AppleWebKit/537.36 (KHTML, like Gecko) Chrome/134.0.0.0 Safari/537.36" version="26.2.10">
  <diagram name="Страница — 1" id="607jsuK415Db7DLNjQu1">
    <mxGraphModel dx="1428" dy="751" grid="1" gridSize="10" guides="1" tooltips="1" connect="1" arrows="1" fold="1" page="1" pageScale="1" pageWidth="827" pageHeight="1169" math="0" shadow="0">
      <root>
        <mxCell id="0" />
        <mxCell id="1" parent="0" />
        <mxCell id="LE0iNq-hestpSMCmqbt1-1" value="&lt;b&gt;&lt;font style=&quot;font-size: 28px; color: rgb(72, 72, 255);&quot;&gt;Стадии реализации продукта&lt;/font&gt;&lt;/b&gt;" style="rounded=0;whiteSpace=wrap;html=1;fillColor=#dae8fc;strokeColor=#6c8ebf;" vertex="1" parent="1">
          <mxGeometry x="210" y="150" width="470" height="60" as="geometry" />
        </mxCell>
        <mxCell id="LE0iNq-hestpSMCmqbt1-2" value="&lt;font style=&quot;font-size: 18px;&quot;&gt;Прототип&lt;/font&gt;" style="shape=step;perimeter=stepPerimeter;whiteSpace=wrap;html=1;fixedSize=1;fillColor=#d5e8d4;strokeColor=#82b366;" vertex="1" parent="1">
          <mxGeometry x="220" y="220" width="150" height="50" as="geometry" />
        </mxCell>
        <mxCell id="LE0iNq-hestpSMCmqbt1-3" value="&lt;font style=&quot;font-size: 18px;&quot;&gt;MVP&lt;/font&gt;" style="shape=step;perimeter=stepPerimeter;whiteSpace=wrap;html=1;fixedSize=1;fillColor=#d5e8d4;strokeColor=#82b366;" vertex="1" parent="1">
          <mxGeometry x="370" y="220" width="150" height="50" as="geometry" />
        </mxCell>
        <mxCell id="LE0iNq-hestpSMCmqbt1-4" value="&lt;font style=&quot;font-size: 18px;&quot;&gt;Продукт&lt;/font&gt;" style="shape=step;perimeter=stepPerimeter;whiteSpace=wrap;html=1;fixedSize=1;fillColor=#d5e8d4;strokeColor=#82b366;" vertex="1" parent="1">
          <mxGeometry x="520" y="220" width="150" height="50" as="geometry" />
        </mxCell>
        <mxCell id="LE0iNq-hestpSMCmqbt1-5" value="&lt;font style=&quot;font-size: 10px;&quot;&gt;Регистрация и вход пользователя с безопасным хранением паролей.&lt;/font&gt;" style="rounded=1;whiteSpace=wrap;html=1;fillColor=#dae8fc;strokeColor=#6c8ebf;align=center;" vertex="1" parent="1">
          <mxGeometry x="220" y="280" width="140" height="50" as="geometry" />
        </mxCell>
        <mxCell id="LE0iNq-hestpSMCmqbt1-8" value="&lt;font style=&quot;font-size: 10px;&quot;&gt;Генерация синтетических данных о мероприятиях и площадках.&lt;/font&gt;" style="rounded=1;whiteSpace=wrap;html=1;fillColor=#dae8fc;strokeColor=#6c8ebf;" vertex="1" parent="1">
          <mxGeometry x="220" y="340" width="140" height="50" as="geometry" />
        </mxCell>
        <mxCell id="LE0iNq-hestpSMCmqbt1-9" value="&lt;font style=&quot;font-size: 10px;&quot;&gt;Бронирование билетов с подтверждением (заглушка оплаты).&lt;/font&gt;" style="rounded=1;whiteSpace=wrap;html=1;fillColor=#dae8fc;strokeColor=#6c8ebf;" vertex="1" parent="1">
          <mxGeometry x="220" y="460" width="140" height="50" as="geometry" />
        </mxCell>
        <mxCell id="LE0iNq-hestpSMCmqbt1-10" value="&lt;font style=&quot;font-size: 10px;&quot;&gt;Минималистичный личный кабинет с историей бронирований.&lt;/font&gt;" style="rounded=1;whiteSpace=wrap;html=1;fillColor=#dae8fc;strokeColor=#6c8ebf;" vertex="1" parent="1">
          <mxGeometry x="220" y="580" width="140" height="50" as="geometry" />
        </mxCell>
        <mxCell id="LE0iNq-hestpSMCmqbt1-11" value="&lt;font style=&quot;font-size: 10px;&quot;&gt;Разделение интерфейса по ролям (пользователь / администратор).&lt;/font&gt;" style="rounded=1;whiteSpace=wrap;html=1;fillColor=#dae8fc;strokeColor=#6c8ebf;" vertex="1" parent="1">
          <mxGeometry x="220" y="520" width="140" height="50" as="geometry" />
        </mxCell>
        <mxCell id="LE0iNq-hestpSMCmqbt1-12" value="&lt;font style=&quot;font-size: 10px;&quot;&gt;Отображение списка мероприятий с базовой информацией.&lt;/font&gt;" style="rounded=1;whiteSpace=wrap;html=1;fillColor=#dae8fc;strokeColor=#6c8ebf;" vertex="1" parent="1">
          <mxGeometry x="220" y="400" width="140" height="50" as="geometry" />
        </mxCell>
        <mxCell id="LE0iNq-hestpSMCmqbt1-14" value="&lt;font style=&quot;font-size: 10px;&quot;&gt;Ввод предпочтений пользователя при регистрации.&lt;/font&gt;" style="rounded=1;whiteSpace=wrap;html=1;fillColor=#dae8fc;strokeColor=#6c8ebf;align=center;" vertex="1" parent="1">
          <mxGeometry x="374" y="280" width="140" height="50" as="geometry" />
        </mxCell>
        <mxCell id="LE0iNq-hestpSMCmqbt1-15" value="&lt;font style=&quot;font-size: 10px;&quot;&gt;Реализация рейтингов и системы оценок мероприятий.&lt;/font&gt;" style="rounded=1;whiteSpace=wrap;html=1;fillColor=#dae8fc;strokeColor=#6c8ebf;" vertex="1" parent="1">
          <mxGeometry x="374" y="340" width="140" height="50" as="geometry" />
        </mxCell>
        <mxCell id="LE0iNq-hestpSMCmqbt1-16" value="&lt;font style=&quot;font-size: 10px;&quot;&gt;Удаление и редактирование бронирований в личном кабинете.&lt;/font&gt;" style="rounded=1;whiteSpace=wrap;html=1;fillColor=#dae8fc;strokeColor=#6c8ebf;" vertex="1" parent="1">
          <mxGeometry x="374" y="460" width="140" height="50" as="geometry" />
        </mxCell>
        <mxCell id="LE0iNq-hestpSMCmqbt1-17" value="&lt;font style=&quot;font-size: 10px;&quot;&gt;Имитация уведомлений о новых событиях по выбранным предпочтениям.&lt;/font&gt;" style="rounded=1;whiteSpace=wrap;html=1;fillColor=#dae8fc;strokeColor=#6c8ebf;" vertex="1" parent="1">
          <mxGeometry x="374" y="580" width="140" height="50" as="geometry" />
        </mxCell>
        <mxCell id="LE0iNq-hestpSMCmqbt1-18" value="&lt;font style=&quot;font-size: 10px;&quot;&gt;Экспорт данных пользователя (история бронирований) в CSV.&lt;/font&gt;" style="rounded=1;whiteSpace=wrap;html=1;fillColor=#dae8fc;strokeColor=#6c8ebf;" vertex="1" parent="1">
          <mxGeometry x="374" y="520" width="140" height="50" as="geometry" />
        </mxCell>
        <mxCell id="LE0iNq-hestpSMCmqbt1-19" value="&lt;font style=&quot;font-size: 10px;&quot;&gt;Настройка поиска и фильтрации по жанрам, дате, рейтингу, локации.&lt;/font&gt;" style="rounded=1;whiteSpace=wrap;html=1;fillColor=#dae8fc;strokeColor=#6c8ebf;" vertex="1" parent="1">
          <mxGeometry x="374" y="400" width="140" height="50" as="geometry" />
        </mxCell>
        <mxCell id="LE0iNq-hestpSMCmqbt1-22" value="&lt;font style=&quot;font-size: 10px;&quot;&gt;Интеграция с внешними API и парсерами для получения реальных данных.&lt;/font&gt;" style="rounded=1;whiteSpace=wrap;html=1;fillColor=#dae8fc;strokeColor=#6c8ebf;align=center;" vertex="1" parent="1">
          <mxGeometry x="525" y="280" width="140" height="50" as="geometry" />
        </mxCell>
        <mxCell id="LE0iNq-hestpSMCmqbt1-23" value="&lt;font style=&quot;font-size: 10px;&quot;&gt;Отображение схем залов с возможностью выбора места.&lt;/font&gt;" style="rounded=1;whiteSpace=wrap;html=1;fillColor=#dae8fc;strokeColor=#6c8ebf;" vertex="1" parent="1">
          <mxGeometry x="525" y="340" width="140" height="50" as="geometry" />
        </mxCell>
        <mxCell id="LE0iNq-hestpSMCmqbt1-24" value="&lt;font style=&quot;font-size: 10px;&quot;&gt;Интеграция с платёжной системой (реальная или тестовая).&lt;/font&gt;" style="rounded=1;whiteSpace=wrap;html=1;fillColor=#dae8fc;strokeColor=#6c8ebf;" vertex="1" parent="1">
          <mxGeometry x="525" y="460" width="140" height="50" as="geometry" />
        </mxCell>
        <mxCell id="LE0iNq-hestpSMCmqbt1-25" value="&lt;font style=&quot;font-size: 10px;&quot;&gt;Поддержка кастомизации интерфейса и языковых настроек.&lt;/font&gt;" style="rounded=1;whiteSpace=wrap;html=1;fillColor=#dae8fc;strokeColor=#6c8ebf;" vertex="1" parent="1">
          <mxGeometry x="525" y="580" width="140" height="50" as="geometry" />
        </mxCell>
        <mxCell id="LE0iNq-hestpSMCmqbt1-26" value="&lt;font style=&quot;font-size: 10px;&quot;&gt;Настройка уведомлений (email, push) о событиях и бронированиях.&lt;/font&gt;" style="rounded=1;whiteSpace=wrap;html=1;fillColor=#dae8fc;strokeColor=#6c8ebf;" vertex="1" parent="1">
          <mxGeometry x="525" y="520" width="140" height="50" as="geometry" />
        </mxCell>
        <mxCell id="LE0iNq-hestpSMCmqbt1-27" value="&lt;font style=&quot;font-size: 9px;&quot;&gt;Продвинутые рекомендации на основе истории бронирований и предпочтений.&lt;/font&gt;" style="rounded=1;whiteSpace=wrap;html=1;fillColor=#dae8fc;strokeColor=#6c8ebf;" vertex="1" parent="1">
          <mxGeometry x="525" y="400" width="140" height="50" as="geometry" />
        </mxCell>
      </root>
    </mxGraphModel>
  </diagram>
</mxfile>
